<?xml version="1.0" encoding="UTF-8" standalone="no"?>
<svg width="537px" height="537px" viewBox="0 0 537 537" version="1.1" xmlns="http://www.w3.org/2000/svg"
>
    <!-- Generator: Sketch 39.1 (31720) - http://www.bohemiancoding.com/sketch -->
    <title>noun_622155_cc</title>
    <desc>Created with Sketch.</desc>
    <defs></defs>
    <g id="Page-1" stroke="none" stroke-width="1" fill="#eee" fill-rule="evenodd">
        <path d="M268.64,0.021 C120.888,0.021 0.764,120.275 0.764,268.083 C0.764,415.89 120.888,535.773 268.64,535.773 C416.392,535.773 536.516,415.889 536.516,268.083 C536.516,120.275 416.392,0.021 268.64,0.021 L268.64,0.021 Z M268.64,23.832 C403.528,23.832 512.519,133.145 512.519,268.083 C512.519,403.021 403.528,512.147 268.64,512.147 C133.753,512.147 24.576,403.02 24.576,268.083 C24.575,133.144 133.753,23.832 268.64,23.832 L268.64,23.832 Z M237.76,74.431 C212.102,74.431 191.254,95.69 191.254,121.495 L191.254,269.385 C191.254,312.732 225.829,348.261 268.64,348.261 C311.451,348.261 346.027,312.732 346.027,269.385 L346.027,121.495 C346.027,95.689 325.178,74.431 299.52,74.431 L237.76,74.431 L237.76,74.431 Z M237.76,98.242 L299.52,98.242 C312.133,98.242 322.215,108.161 322.215,121.495 L322.215,269.385 C322.215,300.238 298.381,324.449 268.64,324.449 C238.899,324.449 215.065,300.238 215.065,269.385 L215.065,121.495 C215.065,108.161 225.148,98.242 237.76,98.242 L237.76,98.242 Z M148.281,253.015 C142.424,253.657 137.54,259.226 137.677,265.107 C137.677,333.312 189.977,389.313 256.734,395.324 L256.734,437.552 L199.066,437.552 C192.853,437.844 187.466,443.784 187.758,450.019 C188.05,456.254 193.969,461.658 200.182,461.365 L336.352,461.365 C342.565,461.365 348.218,455.693 348.218,449.459 C348.218,443.225 342.565,437.553 336.352,437.553 L280.544,437.553 L280.544,395.325 C347.301,389.313 399.414,333.312 399.414,265.108 C400.255,258.441 394.333,251.738 387.602,251.738 C380.871,251.738 374.949,258.441 375.79,265.108 C375.79,324.568 328.206,372.072 268.64,372.072 C209.074,372.072 161.49,324.568 161.49,265.108 C161.648,258.358 155.004,252.275 148.281,253.015 L148.281,253.015 Z"
              id="Shape"></path>
    </g>
</svg>
